<?xml version="1.0"?>
<svg xmlns="http://www.w3.org/2000/svg" height="512px" viewBox="-23 1 511 511.99975" width="512px"><g><path d="m460.136719 135.941406c-1.210938-3.957031-5.402344-6.1875-9.367188-4.972656-3.960937 1.214844-6.1875 5.410156-4.972656 9.371094 3.132813 10.21875 4.71875 21.300781 4.71875 32.941406 0 61.121094-43.53125 125.765625-84.710937 125.816406-.015626 0-.035157 0-.050782 0s-.03125 0-.046875 0c-24.046875-.03125-50.230469-22.304687-67.570312-57.136718 25.792969-32.882813 41.625-78.53125 41.625-118.453126 0-13.21875-1.65625-25.953124-4.847657-37.890624 9.65625-3.773438 20-5.6875 30.84375-5.6875 26.390626 0 49.582032 11.207031 65.304688 31.554687 2.535156 3.28125 7.246094 3.882813 10.523438 1.351563 3.277343-2.535157 3.878906-7.242188 1.347656-10.523438-18.359375-23.757812-46.488282-37.382812-77.175782-37.382812-12.445312 0-24.367187 2.15625-35.539062 6.414062-17.832031-45.152344-58.257812-71.34375-104.085938-71.34375-20.320312 0-39.992187 5.25-56.882812 15.183594-3.570312 2.097656-4.765625 6.695312-2.664062 10.265625 2.097656 3.570312 6.695312 4.761719 10.265624 2.664062 14.589844-8.578125 31.632813-13.113281 49.28125-13.113281 57.148438 0 98.625 45.632812 98.625 108.507812 0 64.289063-46.429687 145.84375-98.617187 145.847657 0 0-.003906 0-.007813 0 0 0-.003906 0-.007812 0-52.183594-.007813-98.613281-81.5625-98.613281-145.847657 0-28.984374 8.445312-54.585937 24.425781-74.042968 2.628906-3.199219 2.164062-7.925782-1.035156-10.554688-3.203125-2.628906-7.929688-2.167968-10.558594 1.035156-15.125 18.414063-24.304688 41.480469-26.988281 67.382813-6.996094-1.675781-14.222657-2.542969-21.605469-2.542969-50.726562 0-91.25 39.71875-91.25 99.050782 0 23.265624 6.53125 48.605468 18.390625 71.359374 1.914063 3.671876 6.445313 5.097657 10.117187 3.183594 3.675782-1.914062 5.101563-6.445312 3.183594-10.117187-10.761718-20.652344-16.691406-43.53125-16.691406-64.425781 0-48.703126 32.066406-84.050782 76.25-84.050782 7.144531 0 14.109375.957032 20.777344 2.816406-.25 44.476563 18.914062 93.933594 47.253906 126.171876-14.144531 39.980468-42.304688 68.578124-68.03125 68.578124-17.15625 0-31.640625-11.867187-40.769531-21.824218-2.800781-3.054688-7.542969-3.257813-10.597657-.460938-3.054687 2.800782-3.257812 7.546875-.460937 10.597656 11.242187 12.261719 23.433594 20.445313 35.890625 24.242188l-5.476562 21.382812c-1.214844 4.738282 2.367187 9.363282 7.265624 9.363282h10.820313c8.960937 11.050781 8.304687 27.363281-1.976563 37.644531-16.832031 16.832031-16.832031 44.222656 0 61.054687 10.984376 10.988282 10.984376 28.859376 0 39.84375-2.929687 2.929688-2.929687 7.679688 0 10.605469 2.929688 2.929688 7.679688 2.929688 10.605469 0 16.835938-16.832031 16.835938-44.222656 0-61.054687-10.984375-10.984375-10.984375-28.859375 0-39.84375 13.027344-13.023438 15.964844-32.367188 8.832031-48.25h.015626c4.890624 0 8.480468-4.621094 7.265624-9.363282l-5.46875-21.347656c28.191407-8.558594 51.128907-38.640625 63.65625-69.445312 11.78125 10.550781 24.375 17.816406 37.09375 21.363281-.410156 1.167969.136719-.839844-7.507812 28.996094-1.214844 4.738281 2.367188 9.363281 7.265625 9.363281h10.546875c1.53125 9.195312 5.859375 17.671875 12.582031 24.398438 5.601563 5.601562 8.726563 13.019531 8.820313 20.925781-3.714844-2.980469-8.429688-4.765625-13.550782-4.765625-11.960937 0-21.695312 9.730468-21.695312 21.695312 0 11.171875 8.496094 20.402344 19.367188 21.566406-15.867188 16.085938-15.800782 42.082032.199218 58.085938 10.246094 10.246094 10.246094 26.824219 0 37.070312-2.929687 2.929688-2.929687 7.679688 0 10.609376 2.929688 2.925781 7.679688 2.925781 10.605469 0 16.070313-16.070313 16.070313-42.21875 0-58.289063-10.21875-10.21875-10.21875-26.851563 0-37.074219 6.476563-6.472656 10.738281-14.566406 12.414063-23.359375 4.984374-7.378906 7.660156-16.070312 7.660156-25.171875 0-12.050781-4.691406-23.378906-13.210938-31.898437-3.875-3.875-6.5625-8.621094-7.882812-13.792969h10.003906c4.890625 0 8.480469-4.621094 7.265625-9.363281-7.667969-29.921875-7.097656-27.835938-7.507813-28.996094 15.136719-4.222656 30.085938-13.71875 43.714844-27.730469 16.242188 30.089844 38.480469 50.6875 61.605469 57.503906-.285156 1 .902344-3.605468-6.242187 24.277344-1.214844 4.738282 2.367187 9.359375 7.265624 9.359375h2.171876c-5.023438 13.0625-2.378907 28.546875 8.332031 39.253907 8.503906 8.503906 8.503906 22.34375 0 30.847656-5.722657 5.722656-9.503907 12.859375-11.023438 20.621094-10.324219 15.457031-8.84375 36.78125 5.058594 50.6875 4.761719 4.761718 7.382813 11.089843 7.382813 17.820312 0 4.140625 3.359374 7.5 7.5 7.5 4.140624 0 7.5-3.359375 7.5-7.5 0-10.738281-4.179688-20.832031-11.773438-28.425781-4.210938-4.210938-6.75-9.652344-7.277344-15.515625 3.085938 1.984375 6.761719 3.136718 10.699219 3.136718 10.9375 0 19.835937-8.898437 19.835937-19.835937 0-9.570313-6.804687-17.574219-15.832031-19.433594 12.804688-14.339843 12.523438-36.523437-1.464843-50.507812-7.777344-7.777344-8.515626-20.011719-1.894532-28.648438h11.960938c4.890625 0 8.480468-4.617187 7.265625-9.359375l-6.101563-23.8125c-.042968-.164062-.097656-.316406-.144531-.476562 46.863281-13.871094 83.15625-81.679688 83.15625-138.339844 0-13.128906-1.808594-25.691406-5.378906-37.339844zm-372.871094 209.710938 3.140625-12.253906c.355469-1.386719 2.335938-1.390626 2.691406 0l3.140625 12.253906zm140.015625 43.476562c-4.367188.433594-8-3.363281-7.28125-7.777344.441406-2.703124 2.574219-4.917968 5.257812-5.441406 4.007813-.78125 8.089844 2.042969 8.035157 6.984375-.035157 3.332031-3.03125 5.941407-6.011719 6.234375zm-9.414062-83.910156 4.621093-18.03125c.964844-3.773438 6.324219-3.773438 7.292969 0l4.621094 18.03125zm155.617187 139.574219c-.351563 1.871093-1.84375 3.40625-3.710937 3.796875-3.117188.652344-5.878907-1.722656-5.878907-4.746094-.003906-2.730469 2.125-4.480469 4.121094-4.769531 3.300781-.480469 6.09375 2.398437 5.46875 5.71875zm-13.65625-114.523438 3.703125-14.449219c.585938-2.285156 3.855469-2.289062 4.445312 0l3.699219 14.449219zm0 0" data-original="#000000" class="active-path" data-old_color="#000000" fill="#D2BE54"/></g> </svg>
