<svg width="36" height="34" viewBox="0 0 36 34" fill="none" xmlns="http://www.w3.org/2000/svg">
<rect width="36" height="34" rx="5" fill="#F2C98C"/>
<g clip-path="url(#clip0)">
<path d="M18 7C13.5887 7 10 10.3713 10 14.5138C10 20.7181 17.4673 26.6756 17.7853 26.9263C17.8447 26.9737 17.9201 27 17.9982 27.0005C18.0762 27.0009 18.152 26.9755 18.212 26.9287C18.53 26.6825 26 20.8275 26 14.5138C26 10.3713 22.4113 7 18 7ZM18.0013 26.2738C16.774 25.2456 10.6667 19.8619 10.6667 14.5138C10.6667 10.715 13.9567 7.625 18 7.625C22.0433 7.625 25.3333 10.715 25.3333 14.5138C25.3333 19.9525 19.232 25.2594 18.0013 26.2738Z" fill="black"/>
<path d="M18 10.75C15.794 10.75 14 12.4319 14 14.5C14 16.5681 15.794 18.25 18 18.25C20.206 18.25 22 16.5681 22 14.5C22 12.4319 20.206 10.75 18 10.75ZM18 17.625C16.162 17.625 14.6667 16.2231 14.6667 14.5C14.6667 12.7769 16.162 11.375 18 11.375C19.838 11.375 21.3333 12.7769 21.3333 14.5C21.3333 16.2231 19.838 17.625 18 17.625Z" fill="black"/>
</g>
<defs>
<clipPath id="clip0">
<rect x="10" y="7" width="16" height="20" rx="5" fill="white"/>
</clipPath>
</defs>
</svg>
